<?xml version="1.0" standalone="no"?>
<svg xmlns="http://www.w3.org/2000/svg" xmlns:xlink="http://www.w3.org/1999/xlink" width="603pt" height="218pt" viewBox="0.00 0.00 603 218.46">
<g id="graph0" class="graph" transform="translate(4,214.4600067138672) scale(1)" data-name="architecture">

<polygon fill="white" stroke="none" points="-4,4 -4,-214.46 599,-214.46 599,4 -4,4"/>
<g id="clust1" class="cluster" data-name="cluster_init">

<polygon fill="none" stroke="black" points="8,-8 8,-191.05 263,-191.05 263,-8 8,-8"/>
<text text-anchor="middle" x="135.5" y="-174.45" font-family="Times,serif" font-size="14.00">Initialization</text>
</g>
<g id="clust2" class="cluster" data-name="cluster_control">

<polygon fill="none" stroke="black" points="459,-19.42 459,-202.46 587,-202.46 587,-19.42 459,-19.42"/>
<text text-anchor="middle" x="523" y="-185.86" font-family="Times,serif" font-size="14.00">Control</text>
</g>
<!-- GS -->
<g id="node1" class="node" pointer-events="visible" data-name="GS">

<ellipse fill="none" stroke="black" cx="362" cy="-45.42" rx="88.57" ry="18"/>
<text text-anchor="middle" x="362" y="-41.22" font-family="Times,serif" font-size="14.00">Google Spreadsheet</text>
</g>
<!-- P -->
<g id="node2" class="node" pointer-events="visible" data-name="P">

<ellipse fill="none" stroke="black" cx="180" cy="-140.25" rx="62.05" ry="18"/>
<text text-anchor="middle" x="180" y="-136.05" font-family="Times,serif" font-size="14.00">Python script</text>
</g>
<!-- P&#45;&gt;GS -->
<g id="edge2" class="edge" data-name="P-&gt;GS">

<path fill="none" stroke="black" d="M209.65,-124.13C239.68,-108.81 286.4,-84.98 320.19,-67.74"/>
<polygon fill="black" stroke="black" points="321.56,-70.97 328.88,-63.31 318.38,-64.74 321.56,-70.97"/>
</g>
<!-- I -->
<g id="node3" class="node" pointer-events="visible" data-name="I">

<ellipse fill="none" stroke="black" cx="51" cy="-45.42" rx="35.33" ry="18"/>
<text text-anchor="middle" x="51" y="-41.22" font-family="Times,serif" font-size="14.00">Image</text>
</g>
<!-- P&#45;&gt;I -->
<g id="edge1" class="edge" data-name="P-&gt;I">

<path fill="none" stroke="black" d="M157.53,-123.08C135.96,-107.55 103.28,-84.04 79.8,-67.14"/>
<polygon fill="black" stroke="black" points="82.07,-64.46 71.91,-61.46 77.98,-70.14 82.07,-64.46"/>
</g>
<!-- C -->
<g id="node4" class="node" pointer-events="visible" data-name="C">

<ellipse fill="none" stroke="black" cx="180" cy="-45.42" rx="75.21" ry="29.33"/>
<text text-anchor="middle" x="180" y="-49.62" font-family="Times,serif" font-size="14.00">Converter</text>
<text text-anchor="middle" x="180" y="-32.82" font-family="Times,serif" font-size="14.00">(bestsiteever.ru)</text>
</g>
<!-- P&#45;&gt;C -->
<g id="edge5" class="edge" data-name="P-&gt;C">

<path fill="none" stroke="black" d="M180,-121.79C180,-111.84 180,-98.93 180,-86.62"/>
<polygon fill="black" stroke="black" points="183.5,-86.62 180,-76.62 176.5,-86.62 183.5,-86.62"/>
</g>
<!-- AS -->
<g id="node5" class="node" pointer-events="visible" data-name="AS">

<ellipse fill="none" stroke="black" cx="523" cy="-140.25" rx="55.72" ry="29.33"/>
<text text-anchor="middle" x="523" y="-144.45" font-family="Times,serif" font-size="14.00">AppsScript</text>
<text text-anchor="middle" x="523" y="-127.65" font-family="Times,serif" font-size="14.00">(UI)</text>
</g>
<!-- AS&#45;&gt;GS -->
<g id="edge3" class="edge" data-name="AS-&gt;GS">

<path fill="none" stroke="black" d="M486.06,-117.95C460.41,-103.16 426.31,-83.5 400.35,-68.53"/>
<polygon fill="black" stroke="black" points="402.21,-65.56 391.8,-63.6 398.71,-71.62 402.21,-65.56"/>
</g>
<!-- U -->
<g id="node6" class="node" pointer-events="visible" data-name="U">

<ellipse fill="none" stroke="black" cx="523" cy="-45.42" rx="29.04" ry="18"/>
<text text-anchor="middle" x="523" y="-41.22" font-family="Times,serif" font-size="14.00">User</text>
</g>
<!-- AS&#45;&gt;U -->
<g id="edge4" class="edge" data-name="AS-&gt;U">

<path fill="none" stroke="black" d="M523,-99.45C523,-91.25 523,-82.77 523,-75.06"/>
<polygon fill="black" stroke="black" points="519.5,-99.12 523,-109.12 526.5,-99.12 519.5,-99.12"/>
<polygon fill="black" stroke="black" points="526.5,-75.24 523,-65.24 519.5,-75.24 526.5,-75.24"/>
</g>
</g>
</svg>